<?xml version="1.0" encoding="iso-8859-1"?>
<!-- Generator: Adobe Illustrator 18.0.0, SVG Export Plug-In . SVG Version: 6.00 Build 0)  -->
<!DOCTYPE svg PUBLIC "-//W3C//DTD SVG 1.1//EN" "http://www.w3.org/Graphics/SVG/1.1/DTD/svg11.dtd">
<svg version="1.1" id="ico-format-dvd-32" xmlns="http://www.w3.org/2000/svg" xmlns:xlink="http://www.w3.org/1999/xlink" x="0px" y="0px"
	width="32" height="32" viewBox="0 0 330 330" style="enable-background:new 0 0 330 330;" xml:space="preserve">
<g>
	<path d="M253.012,119.322V10c0-5.523-4.478-10-10-10H10.297c-5.522,0-10,4.477-10,10v301.786c0,5.523,4.478,10,10,10h170.579
		c12.703,5.288,26.626,8.214,41.222,8.214c59.334,0,107.605-48.272,107.605-107.606
		C329.703,173.802,297.324,132.637,253.012,119.322z M55.194,301.786V20h177.817v95.339c-3.59-0.363-7.23-0.55-10.914-0.55
		c-59.334,0-107.606,48.271-107.606,107.604c0,31.402,13.522,59.703,35.048,79.392H55.194z M222.098,310
		c-48.307,0-87.607-39.3-87.607-87.606c0-48.305,39.3-87.605,87.607-87.605c48.306,0,87.605,39.299,87.605,87.605
		C309.703,270.7,270.403,310,222.098,310z"/>
	<path d="M254.893,222.394c0-18.083-14.712-32.794-32.795-32.794c-18.084,0-32.797,14.711-32.797,32.794
		c0,18.083,14.713,32.796,32.797,32.796C240.181,255.189,254.893,240.477,254.893,222.394z M199.301,222.394
		c0-12.569,10.227-22.794,22.797-22.794c12.569,0,22.795,10.225,22.795,22.794c0,12.57-10.226,22.796-22.795,22.796
		C209.527,245.189,199.301,234.963,199.301,222.394z"/>
	<path d="M286.451,217.394c-2.757,0-5,2.243-5,5c0,32.729-26.626,59.356-59.354,59.356c-2.757,0-5,2.243-5,5s2.243,5,5,5
		c38.241,0,69.354-31.113,69.354-69.356C291.451,219.637,289.208,217.394,286.451,217.394z"/>
	<path d="M227.098,158.04c0-2.757-2.243-5-5-5c-38.242,0-69.355,31.112-69.355,69.354c0,2.757,2.243,5,5,5c2.757,0,5-2.243,5-5
		c0-32.728,26.626-59.354,59.355-59.354C224.855,163.04,227.098,160.796,227.098,158.04z"/>
</g>
<g>
</g>
<g>
</g>
<g>
</g>
<g>
</g>
<g>
</g>
<g>
</g>
<g>
</g>
<g>
</g>
<g>
</g>
<g>
</g>
<g>
</g>
<g>
</g>
<g>
</g>
<g>
</g>
<g>
</g>
</svg>
